<mxfile host="app.diagrams.net" agent="Mozilla/5.0 (Windows NT 10.0; Win64; x64) AppleWebKit/537.36 (KHTML, like Gecko) Chrome/129.0.0.0 Safari/537.36" version="24.7.17">
  <diagram name="Page-1" id="s6f0g-pT5pdg3Gp_lMaO">
    <mxGraphModel dx="962" dy="787" grid="0" gridSize="10" guides="1" tooltips="1" connect="1" arrows="1" fold="1" page="0" pageScale="1" pageWidth="850" pageHeight="1100" math="0" shadow="0">
      <root>
        <mxCell id="0" />
        <mxCell id="1" parent="0" />
        <mxCell id="wC7o8qSrdzOkF46VFOOH-1" value=":Server" style="shape=umlLifeline;perimeter=lifelinePerimeter;whiteSpace=wrap;html=1;container=0;dropTarget=0;collapsible=0;recursiveResize=0;outlineConnect=0;portConstraint=eastwest;newEdgeStyle={&quot;edgeStyle&quot;:&quot;elbowEdgeStyle&quot;,&quot;elbow&quot;:&quot;vertical&quot;,&quot;curved&quot;:0,&quot;rounded&quot;:0};" vertex="1" parent="1">
          <mxGeometry x="80" y="60" width="100" height="340" as="geometry" />
        </mxCell>
        <mxCell id="wC7o8qSrdzOkF46VFOOH-2" value="" style="html=1;points=[];perimeter=orthogonalPerimeter;outlineConnect=0;targetShapes=umlLifeline;portConstraint=eastwest;newEdgeStyle={&quot;edgeStyle&quot;:&quot;elbowEdgeStyle&quot;,&quot;elbow&quot;:&quot;vertical&quot;,&quot;curved&quot;:0,&quot;rounded&quot;:0};" vertex="1" parent="wC7o8qSrdzOkF46VFOOH-1">
          <mxGeometry x="45" y="70" width="10" height="200" as="geometry" />
        </mxCell>
        <mxCell id="wC7o8qSrdzOkF46VFOOH-3" value=":Patient" style="shape=umlLifeline;perimeter=lifelinePerimeter;whiteSpace=wrap;html=1;container=0;dropTarget=0;collapsible=0;recursiveResize=0;outlineConnect=0;portConstraint=eastwest;newEdgeStyle={&quot;edgeStyle&quot;:&quot;elbowEdgeStyle&quot;,&quot;elbow&quot;:&quot;vertical&quot;,&quot;curved&quot;:0,&quot;rounded&quot;:0};" vertex="1" parent="1">
          <mxGeometry x="320" y="60" width="100" height="320" as="geometry" />
        </mxCell>
        <mxCell id="wC7o8qSrdzOkF46VFOOH-4" value="" style="html=1;points=[];perimeter=orthogonalPerimeter;outlineConnect=0;targetShapes=umlLifeline;portConstraint=eastwest;newEdgeStyle={&quot;edgeStyle&quot;:&quot;elbowEdgeStyle&quot;,&quot;elbow&quot;:&quot;vertical&quot;,&quot;curved&quot;:0,&quot;rounded&quot;:0};" vertex="1" parent="wC7o8qSrdzOkF46VFOOH-3">
          <mxGeometry x="45" y="80" width="10" height="180" as="geometry" />
        </mxCell>
        <mxCell id="wC7o8qSrdzOkF46VFOOH-5" value=":Website" style="shape=umlLifeline;perimeter=lifelinePerimeter;whiteSpace=wrap;html=1;container=0;dropTarget=0;collapsible=0;recursiveResize=0;outlineConnect=0;portConstraint=eastwest;newEdgeStyle={&quot;edgeStyle&quot;:&quot;elbowEdgeStyle&quot;,&quot;elbow&quot;:&quot;vertical&quot;,&quot;curved&quot;:0,&quot;rounded&quot;:0};" vertex="1" parent="1">
          <mxGeometry x="-70" y="60" width="100" height="330" as="geometry" />
        </mxCell>
        <mxCell id="wC7o8qSrdzOkF46VFOOH-6" value="" style="html=1;points=[];perimeter=orthogonalPerimeter;outlineConnect=0;targetShapes=umlLifeline;portConstraint=eastwest;newEdgeStyle={&quot;edgeStyle&quot;:&quot;elbowEdgeStyle&quot;,&quot;elbow&quot;:&quot;vertical&quot;,&quot;curved&quot;:0,&quot;rounded&quot;:0};" vertex="1" parent="wC7o8qSrdzOkF46VFOOH-5">
          <mxGeometry x="45" y="60" width="10" height="70" as="geometry" />
        </mxCell>
        <mxCell id="wC7o8qSrdzOkF46VFOOH-7" value=":Nurse" style="shape=umlLifeline;perimeter=lifelinePerimeter;whiteSpace=wrap;html=1;container=0;dropTarget=0;collapsible=0;recursiveResize=0;outlineConnect=0;portConstraint=eastwest;newEdgeStyle={&quot;edgeStyle&quot;:&quot;elbowEdgeStyle&quot;,&quot;elbow&quot;:&quot;vertical&quot;,&quot;curved&quot;:0,&quot;rounded&quot;:0};" vertex="1" parent="1">
          <mxGeometry x="-220" y="60" width="100" height="180" as="geometry" />
        </mxCell>
        <mxCell id="wC7o8qSrdzOkF46VFOOH-8" value="NotifyPatient:type" style="html=1;verticalAlign=bottom;endArrow=block;edgeStyle=elbowEdgeStyle;elbow=vertical;curved=0;rounded=0;" edge="1" parent="1">
          <mxGeometry relative="1" as="geometry">
            <mxPoint x="-170" y="130" as="sourcePoint" />
            <Array as="points">
              <mxPoint x="-105" y="130" />
            </Array>
            <mxPoint x="-20" y="130" as="targetPoint" />
          </mxGeometry>
        </mxCell>
        <mxCell id="wC7o8qSrdzOkF46VFOOH-9" value="NotifyPatient:type" style="html=1;verticalAlign=bottom;endArrow=block;edgeStyle=elbowEdgeStyle;elbow=vertical;curved=0;rounded=0;" edge="1" parent="1" target="wC7o8qSrdzOkF46VFOOH-1">
          <mxGeometry relative="1" as="geometry">
            <mxPoint x="-20" y="140" as="sourcePoint" />
            <Array as="points">
              <mxPoint x="45" y="140" />
            </Array>
            <mxPoint x="130" y="140" as="targetPoint" />
          </mxGeometry>
        </mxCell>
        <mxCell id="wC7o8qSrdzOkF46VFOOH-10" value="goToGP" style="html=1;verticalAlign=bottom;endArrow=block;edgeStyle=elbowEdgeStyle;elbow=vertical;curved=0;rounded=0;" edge="1" parent="1" target="wC7o8qSrdzOkF46VFOOH-3">
          <mxGeometry relative="1" as="geometry">
            <mxPoint x="130" y="140" as="sourcePoint" />
            <Array as="points">
              <mxPoint x="195" y="140" />
            </Array>
            <mxPoint x="280" y="140" as="targetPoint" />
          </mxGeometry>
        </mxCell>
        <mxCell id="wC7o8qSrdzOkF46VFOOH-11" value="overTheCounter" style="html=1;verticalAlign=bottom;endArrow=block;edgeStyle=elbowEdgeStyle;elbow=vertical;curved=0;rounded=0;" edge="1" parent="1">
          <mxGeometry relative="1" as="geometry">
            <mxPoint x="130" y="170" as="sourcePoint" />
            <Array as="points">
              <mxPoint x="195" y="170" />
            </Array>
            <mxPoint x="370" y="170" as="targetPoint" />
          </mxGeometry>
        </mxCell>
        <mxCell id="wC7o8qSrdzOkF46VFOOH-12" value="waitForER" style="html=1;verticalAlign=bottom;endArrow=block;edgeStyle=elbowEdgeStyle;elbow=vertical;curved=0;rounded=0;" edge="1" parent="1">
          <mxGeometry relative="1" as="geometry">
            <mxPoint x="130" y="200" as="sourcePoint" />
            <Array as="points">
              <mxPoint x="195" y="200" />
            </Array>
            <mxPoint x="370" y="200" as="targetPoint" />
          </mxGeometry>
        </mxCell>
        <mxCell id="wC7o8qSrdzOkF46VFOOH-13" value="VisitER" style="html=1;verticalAlign=bottom;endArrow=block;edgeStyle=elbowEdgeStyle;elbow=vertical;curved=0;rounded=0;" edge="1" parent="1">
          <mxGeometry relative="1" as="geometry">
            <mxPoint x="130" y="224.57" as="sourcePoint" />
            <Array as="points">
              <mxPoint x="195" y="224.57" />
            </Array>
            <mxPoint x="370" y="224.57" as="targetPoint" />
          </mxGeometry>
        </mxCell>
        <mxCell id="wC7o8qSrdzOkF46VFOOH-14" value=":Hotline" style="shape=umlLifeline;perimeter=lifelinePerimeter;whiteSpace=wrap;html=1;container=0;dropTarget=0;collapsible=0;recursiveResize=0;outlineConnect=0;portConstraint=eastwest;newEdgeStyle={&quot;edgeStyle&quot;:&quot;elbowEdgeStyle&quot;,&quot;elbow&quot;:&quot;vertical&quot;,&quot;curved&quot;:0,&quot;rounded&quot;:0};" vertex="1" parent="1">
          <mxGeometry x="200" y="240" width="100" height="150" as="geometry" />
        </mxCell>
        <mxCell id="wC7o8qSrdzOkF46VFOOH-15" value="" style="html=1;points=[];perimeter=orthogonalPerimeter;outlineConnect=0;targetShapes=umlLifeline;portConstraint=eastwest;newEdgeStyle={&quot;edgeStyle&quot;:&quot;elbowEdgeStyle&quot;,&quot;elbow&quot;:&quot;vertical&quot;,&quot;curved&quot;:0,&quot;rounded&quot;:0};" vertex="1" parent="wC7o8qSrdzOkF46VFOOH-14">
          <mxGeometry x="45" y="50" width="10" height="70" as="geometry" />
        </mxCell>
        <mxCell id="wC7o8qSrdzOkF46VFOOH-16" value="contactHotline" style="html=1;verticalAlign=bottom;endArrow=block;edgeStyle=elbowEdgeStyle;elbow=vertical;curved=0;rounded=0;" edge="1" parent="1">
          <mxGeometry relative="1" as="geometry">
            <mxPoint x="130" y="300" as="sourcePoint" />
            <Array as="points">
              <mxPoint x="195" y="300" />
            </Array>
            <mxPoint x="250" y="300" as="targetPoint" />
          </mxGeometry>
        </mxCell>
        <mxCell id="wC7o8qSrdzOkF46VFOOH-17" value="phoneCall" style="html=1;verticalAlign=bottom;endArrow=block;edgeStyle=elbowEdgeStyle;elbow=vertical;curved=0;rounded=0;" edge="1" parent="1">
          <mxGeometry relative="1" as="geometry">
            <mxPoint x="250" y="300" as="sourcePoint" />
            <Array as="points">
              <mxPoint x="315" y="300" />
            </Array>
            <mxPoint x="370" y="300" as="targetPoint" />
          </mxGeometry>
        </mxCell>
      </root>
    </mxGraphModel>
  </diagram>
</mxfile>
